<svg width="30" height="30" fill="none" xmlns="http://www.w3.org/2000/svg"><path d="M2.25 0C1.007 0 0 1.221 0 2.727c0 1.506 1.007 2.728 2.25 2.728h25.5c1.243 0 2.25-1.222 2.25-2.728C30 1.221 28.993 0 27.75 0H2.25zm0 12.273C1.007 12.273 0 13.493 0 15c0 1.506 1.007 2.727 2.25 2.727h25.5c1.243 0 2.25-1.22 2.25-2.727 0-1.506-1.007-2.727-2.25-2.727H2.25zm0 12.273c-1.243 0-2.25 1.22-2.25 2.727C0 28.779 1.007 30 2.25 30h25.5c1.243 0 2.25-1.221 2.25-2.727 0-1.506-1.007-2.727-2.25-2.727H2.25z" fill="#383838"/></svg>