<svg width="16" height="15" fill="none" xmlns="http://www.w3.org/2000/svg"><path d="M.826 3.21c.04-.44.21-.809.53-1.127L2.592.85C2.786.664 3 .568 3.206.568c.203 0 .41.096.599.288.223.206.432.421.659.65.113.116.23.232.346.352l.992.988c.206.205.312.414.312.62 0 .205-.106.414-.312.62-.104.102-.207.208-.31.311-.31.312-.599.607-.918.889l-.017.016c-.276.275-.233.537-.167.736l.01.027c.257.613.613 1.197 1.169 1.893.998 1.227 2.05 2.178 3.208 2.91.143.094.296.166.439.24.133.066.256.129.366.198.013.007.023.014.037.02a.69.69 0 00.322.083c.267 0 .44-.169.496-.225l1.245-1.24c.193-.193.403-.295.609-.295.253 0 .46.156.59.295l2.006 1.996c.4.398.396.829-.01 1.25-.14.149-.286.291-.443.44-.233.226-.476.458-.695.72-.383.411-.839.603-1.428.603-.057 0-.117-.003-.173-.006-1.092-.07-2.107-.494-2.869-.856a16.178 16.178 0 01-5.394-4.21c-1.242-1.489-2.077-2.875-2.63-4.36-.342-.912-.472-1.644-.419-2.31z"/></svg>