<svg width="252" height="252" fill="none" xmlns="http://www.w3.org/2000/svg"><path d="M222 126c0 53.019-42.981 96-96 96-53.02 0-96-42.981-96-96 0-53.02 42.98-96 96-96 53.019 0 96 42.98 96 96zm-188.028 0c0 50.826 41.202 92.028 92.028 92.028 50.826 0 92.028-41.202 92.028-92.028 0-50.826-41.202-92.028-92.028-92.028-50.826 0-92.028 41.202-92.028 92.028z" fill="#fff" fill-opacity=".1"/><g filter="url(#filter0_d)"><path d="M222 126c0 53.019-42.981 96-96 96-53.02 0-96-42.981-96-96 0-53.02 42.98-96 96-96 53.019 0 96 42.98 96 96zm-188.028 0c0 50.826 41.202 92.028 92.028 92.028 50.826 0 92.028-41.202 92.028-92.028 0-50.826-41.202-92.028-92.028-92.028-50.826 0-92.028 41.202-92.028 92.028z" fill="url(#paint0_linear)"/></g><path d="M83.891 140h-1.44v-27.945l-4.724 5.175-.99-1.035 5.805-6.21h1.35V140zm23.011-.855c-1.41.93-3.06 1.395-4.95 1.395-1.89 0-3.555-.465-4.995-1.395a10.007 10.007 0 01-3.375-3.78 21.575 21.575 0 01-1.755-4.95c-.39-1.77-.585-3.57-.585-5.4 0-1.86.195-3.66.585-5.4.39-1.74.975-3.375 1.755-4.905.81-1.56 1.935-2.805 3.375-3.735 1.44-.96 3.105-1.44 4.995-1.44 1.89 0 3.54.48 4.95 1.44a9.324 9.324 0 013.33 3.735c.81 1.53 1.41 3.165 1.8 4.905.39 1.74.585 3.54.585 5.4 0 1.83-.195 3.63-.585 5.4-.39 1.74-.99 3.39-1.8 4.95a9.652 9.652 0 01-3.33 3.78zm-9.27-1.215c1.23.84 2.67 1.26 4.32 1.26 1.65 0 3.09-.435 4.32-1.305 1.23-.87 2.175-2.01 2.835-3.42.66-1.44 1.14-2.94 1.44-4.5a24.3 24.3 0 00.495-4.95c0-1.71-.165-3.345-.495-4.905-.3-1.59-.78-3.09-1.44-4.5-.66-1.44-1.605-2.58-2.835-3.42-1.23-.87-2.67-1.305-4.32-1.305-1.65 0-3.09.435-4.32 1.305-1.23.84-2.19 1.98-2.88 3.42a20.309 20.309 0 00-1.485 4.5c-.3 1.56-.45 3.195-.45 4.905 0 1.71.15 3.36.45 4.95.33 1.56.825 3.06 1.485 4.5.69 1.44 1.65 2.595 2.88 3.465zm36.966 1.215c-1.41.93-3.06 1.395-4.95 1.395-1.89 0-3.555-.465-4.995-1.395a10.007 10.007 0 01-3.375-3.78 21.575 21.575 0 01-1.755-4.95c-.39-1.77-.585-3.57-.585-5.4 0-1.86.195-3.66.585-5.4.39-1.74.975-3.375 1.755-4.905.81-1.56 1.935-2.805 3.375-3.735 1.44-.96 3.105-1.44 4.995-1.44 1.89 0 3.54.48 4.95 1.44a9.324 9.324 0 013.33 3.735c.81 1.53 1.41 3.165 1.8 4.905.39 1.74.585 3.54.585 5.4 0 1.83-.195 3.63-.585 5.4-.39 1.74-.99 3.39-1.8 4.95a9.652 9.652 0 01-3.33 3.78zm-9.27-1.215c1.23.84 2.67 1.26 4.32 1.26 1.65 0 3.09-.435 4.32-1.305 1.23-.87 2.175-2.01 2.835-3.42.66-1.44 1.14-2.94 1.44-4.5a24.3 24.3 0 00.495-4.95c0-1.71-.165-3.345-.495-4.905-.3-1.59-.78-3.09-1.44-4.5-.66-1.44-1.605-2.58-2.835-3.42-1.23-.87-2.67-1.305-4.32-1.305-1.65 0-3.09.435-4.32 1.305-1.23.84-2.19 1.98-2.88 3.42a20.309 20.309 0 00-1.485 4.5c-.3 1.56-.45 3.195-.45 4.905 0 1.71.15 3.36.45 4.95.33 1.56.825 3.06 1.485 4.5.69 1.44 1.65 2.595 2.88 3.465zm31.836-15.795c-1.29 1.38-2.94 2.07-4.95 2.07-2.01 0-3.66-.69-4.95-2.07s-1.935-3.12-1.935-5.22c0-2.13.645-3.885 1.935-5.265 1.29-1.41 2.94-2.115 4.95-2.115 2.01 0 3.66.705 4.95 2.115 1.29 1.38 1.935 3.135 1.935 5.265 0 2.1-.645 3.84-1.935 5.22zM151.044 140h-1.62l19.17-30.015h1.665L151.044 140zm21.015-1.53c-1.29 1.38-2.94 2.07-4.95 2.07-2.01 0-3.66-.69-4.95-2.07s-1.935-3.12-1.935-5.22c0-2.13.645-3.885 1.935-5.265 1.29-1.41 2.94-2.115 4.95-2.115 2.01 0 3.66.705 4.95 2.115 1.29 1.38 1.935 3.135 1.935 5.265 0 2.1-.645 3.84-1.935 5.22zm-19.845-15.48c1.59 0 2.88-.585 3.87-1.755 1.02-1.2 1.53-2.64 1.53-4.32 0-1.71-.51-3.165-1.53-4.365-.99-1.2-2.28-1.8-3.87-1.8-1.56 0-2.85.6-3.87 1.8-1.02 1.2-1.53 2.655-1.53 4.365 0 1.65.51 3.075 1.53 4.275 1.02 1.2 2.31 1.8 3.87 1.8zm10.98 14.58c1.02 1.17 2.325 1.755 3.915 1.755 1.59 0 2.88-.585 3.87-1.755 1.02-1.2 1.53-2.64 1.53-4.32 0-1.71-.51-3.165-1.53-4.365-.99-1.2-2.28-1.8-3.87-1.8-1.59 0-2.895.6-3.915 1.8-.99 1.2-1.485 2.655-1.485 4.365 0 1.68.495 3.12 1.485 4.32z" fill="#fff" fill-opacity=".8"/><defs><linearGradient id="paint0_linear" x1="30" y1="126" x2="222" y2="126" gradientUnits="userSpaceOnUse"><stop stop-color="#0CF"/><stop offset="1" stop-color="#00A2FF"/></linearGradient><filter id="filter0_d" x="0" y="0" width="252" height="252" filterUnits="userSpaceOnUse" color-interpolation-filters="sRGB"><feFlood flood-opacity="0" result="BackgroundImageFix"/><feColorMatrix in="SourceAlpha" values="0 0 0 0 0 0 0 0 0 0 0 0 0 0 0 0 0 0 127 0"/><feOffset/><feGaussianBlur stdDeviation="15"/><feColorMatrix values="0 0 0 0 0 0 0 0 0 0.639216 0 0 0 0 1 0 0 0 0.5 0"/><feBlend in2="BackgroundImageFix" result="effect1_dropShadow"/><feBlend in="SourceGraphic" in2="effect1_dropShadow" result="shape"/></filter></defs></svg>