<svg width="252" height="252" fill="none" xmlns="http://www.w3.org/2000/svg"><path d="M222 126c0 53.019-42.981 96-96 96-53.02 0-96-42.981-96-96 0-53.02 42.98-96 96-96 53.019 0 96 42.98 96 96zm-188.028 0c0 50.826 41.202 92.028 92.028 92.028 50.826 0 92.028-41.202 92.028-92.028 0-50.826-41.202-92.028-92.028-92.028-50.826 0-92.028 41.202-92.028 92.028z" fill="#fff" fill-opacity=".1"/><g filter="url(#filter0_d)"><path d="M193.882 58.118A96 96 0 11126.001 30v3.972a92.026 92.026 0 00-81.162 135.409 92.031 92.031 0 00107.875 44.684 92.027 92.027 0 0038.359-153.138l2.809-2.81z" fill="url(#paint0_linear)"/></g><path d="M98.122 140.54c-2.85 0-5.175-.735-6.975-2.205-1.8-1.5-2.7-3.42-2.7-5.76 0-2.04.75-3.75 2.25-5.13 1.53-1.41 3.375-2.385 5.535-2.925-2.04-.48-3.765-1.335-5.175-2.565-1.41-1.26-2.115-2.835-2.115-4.725 0-2.46.915-4.35 2.745-5.67 1.83-1.35 3.975-2.025 6.435-2.025 2.43 0 4.56.675 6.39 2.025 1.86 1.35 2.79 3.24 2.79 5.67 0 1.89-.705 3.465-2.115 4.725-1.41 1.23-3.135 2.085-5.175 2.565 2.16.54 3.99 1.515 5.49 2.925 1.5 1.38 2.25 3.09 2.25 5.13 0 2.31-.915 4.215-2.745 5.715-1.8 1.5-4.095 2.25-6.885 2.25zm0-16.695c.69-.12 1.365-.3 2.025-.54.69-.24 1.515-.6 2.475-1.08a6.117 6.117 0 002.34-2.025c.6-.87.9-1.86.9-2.97 0-1.95-.75-3.495-2.25-4.635-1.47-1.14-3.3-1.71-5.49-1.71-2.19 0-4.035.57-5.535 1.71-1.47 1.14-2.205 2.685-2.205 4.635 0 1.11.3 2.1.9 2.97.6.87 1.38 1.56 2.34 2.07.99.48 1.815.825 2.475 1.035.66.21 1.335.39 2.025.54zm0 15.345c2.22 0 4.14-.6 5.76-1.8 1.62-1.23 2.43-2.835 2.43-4.815 0-1.2-.33-2.295-.99-3.285-.66-.99-1.485-1.755-2.475-2.295-.96-.57-1.845-1.005-2.655-1.305-.81-.3-1.5-.48-2.07-.54-.57.06-1.275.24-2.115.54-.81.3-1.71.735-2.7 1.305-.96.54-1.77 1.305-2.43 2.295-.66.99-.99 2.085-.99 3.285 0 1.98.81 3.585 2.43 4.815 1.62 1.2 3.555 1.8 5.805 1.8zm20.14.81h-1.62l13.185-28.665h-17.055v-1.35h18.765v.99L118.262 140zm28.811-17.865c-1.29 1.38-2.94 2.07-4.95 2.07-2.01 0-3.66-.69-4.95-2.07s-1.935-3.12-1.935-5.22c0-2.13.645-3.885 1.935-5.265 1.29-1.41 2.94-2.115 4.95-2.115 2.01 0 3.66.705 4.95 2.115 1.29 1.38 1.935 3.135 1.935 5.265 0 2.1-.645 3.84-1.935 5.22zM140.953 140h-1.62l19.17-30.015h1.665L140.953 140zm21.015-1.53c-1.29 1.38-2.94 2.07-4.95 2.07-2.01 0-3.66-.69-4.95-2.07s-1.935-3.12-1.935-5.22c0-2.13.645-3.885 1.935-5.265 1.29-1.41 2.94-2.115 4.95-2.115 2.01 0 3.66.705 4.95 2.115 1.29 1.38 1.935 3.135 1.935 5.265 0 2.1-.645 3.84-1.935 5.22zm-19.845-15.48c1.59 0 2.88-.585 3.87-1.755 1.02-1.2 1.53-2.64 1.53-4.32 0-1.71-.51-3.165-1.53-4.365-.99-1.2-2.28-1.8-3.87-1.8-1.56 0-2.85.6-3.87 1.8-1.02 1.2-1.53 2.655-1.53 4.365 0 1.65.51 3.075 1.53 4.275 1.02 1.2 2.31 1.8 3.87 1.8zm10.98 14.58c1.02 1.17 2.325 1.755 3.915 1.755 1.59 0 2.88-.585 3.87-1.755 1.02-1.2 1.53-2.64 1.53-4.32 0-1.71-.51-3.165-1.53-4.365-.99-1.2-2.28-1.8-3.87-1.8-1.59 0-2.895.6-3.915 1.8-.99 1.2-1.485 2.655-1.485 4.365 0 1.68.495 3.12 1.485 4.32z" fill="#fff" fill-opacity=".8"/><defs><linearGradient id="paint0_linear" x1="30" y1="126" x2="222" y2="126" gradientUnits="userSpaceOnUse"><stop stop-color="#0CF"/><stop offset="1" stop-color="#00A2FF"/></linearGradient><filter id="filter0_d" x="0" y="0" width="252" height="252" filterUnits="userSpaceOnUse" color-interpolation-filters="sRGB"><feFlood flood-opacity="0" result="BackgroundImageFix"/><feColorMatrix in="SourceAlpha" values="0 0 0 0 0 0 0 0 0 0 0 0 0 0 0 0 0 0 127 0"/><feOffset/><feGaussianBlur stdDeviation="15"/><feColorMatrix values="0 0 0 0 0 0 0 0 0 0.639216 0 0 0 0 1 0 0 0 0.5 0"/><feBlend in2="BackgroundImageFix" result="effect1_dropShadow"/><feBlend in="SourceGraphic" in2="effect1_dropShadow" result="shape"/></filter></defs></svg>