<svg width="238" height="252" fill="none" xmlns="http://www.w3.org/2000/svg"><path d="M222 126c0 53.019-42.981 96-96 96-53.02 0-96-42.981-96-96 0-53.02 42.98-96 96-96 53.019 0 96 42.98 96 96zm-188.028 0c0 50.826 41.202 92.028 92.028 92.028 50.826 0 92.028-41.202 92.028-92.028 0-50.826-41.202-92.028-92.028-92.028-50.826 0-92.028 41.202-92.028 92.028z" fill="#fff" fill-opacity=".1"/><g filter="url(#filter0_d)"><path d="M207.494 176.742a96.006 96.006 0 01-84.004 45.225 95.998 95.998 0 012.957-191.966l-.019 3.972A92.026 92.026 0 0078.2 204.64a92.02 92.02 0 0045.394 13.356 92.021 92.021 0 0080.528-43.353l3.372 2.099z" fill="url(#paint0_linear)"/></g><path d="M96.491 140.54c-1.86 0-3.495-.42-4.905-1.26-1.38-.87-2.46-2.055-3.24-3.555a19.825 19.825 0 01-1.755-4.905c-.36-1.8-.54-3.735-.54-5.805 0-1.95.18-3.795.54-5.535.39-1.74.975-3.375 1.755-4.905a9.406 9.406 0 013.375-3.645c1.44-.93 3.12-1.395 5.04-1.395 3.36 0 5.985 1.35 7.875 4.05l-1.08.945c-1.68-2.43-3.945-3.645-6.795-3.645-1.68 0-3.15.435-4.41 1.305-1.26.84-2.235 1.995-2.925 3.465a20.937 20.937 0 00-1.485 4.635c-.3 1.62-.45 3.345-.45 5.175 0 .72.015 1.26.045 1.62.75-1.26 1.965-2.46 3.645-3.6 1.71-1.17 3.54-1.755 5.49-1.755 2.82 0 5.1.81 6.84 2.43 1.77 1.59 2.655 3.93 2.655 7.02 0 2.49-.87 4.68-2.61 6.57-1.74 1.86-4.095 2.79-7.065 2.79zm0-1.35c2.61 0 4.635-.825 6.075-2.475 1.44-1.68 2.16-3.525 2.16-5.535 0-2.64-.735-4.65-2.205-6.03-1.47-1.38-3.435-2.07-5.895-2.07-1.77 0-3.465.555-5.085 1.665a11.643 11.643 0 00-3.825 4.185c.12 1.2.36 2.37.72 3.51.36 1.14.87 2.235 1.53 3.285a7.384 7.384 0 002.655 2.52c1.14.63 2.43.945 3.87.945zm26.422 1.35c-1.86 0-3.495-.42-4.905-1.26-1.38-.87-2.46-2.055-3.24-3.555a19.825 19.825 0 01-1.755-4.905c-.36-1.8-.54-3.735-.54-5.805 0-1.95.18-3.795.54-5.535.39-1.74.975-3.375 1.755-4.905a9.406 9.406 0 013.375-3.645c1.44-.93 3.12-1.395 5.04-1.395 3.36 0 5.985 1.35 7.875 4.05l-1.08.945c-1.68-2.43-3.945-3.645-6.795-3.645-1.68 0-3.15.435-4.41 1.305-1.26.84-2.235 1.995-2.925 3.465a20.937 20.937 0 00-1.485 4.635c-.3 1.62-.45 3.345-.45 5.175 0 .72.015 1.26.045 1.62.75-1.26 1.965-2.46 3.645-3.6 1.71-1.17 3.54-1.755 5.49-1.755 2.82 0 5.1.81 6.84 2.43 1.77 1.59 2.655 3.93 2.655 7.02 0 2.49-.87 4.68-2.61 6.57-1.74 1.86-4.095 2.79-7.065 2.79zm0-1.35c2.61 0 4.635-.825 6.075-2.475 1.44-1.68 2.16-3.525 2.16-5.535 0-2.64-.735-4.65-2.205-6.03-1.47-1.38-3.435-2.07-5.895-2.07-1.77 0-3.465.555-5.085 1.665a11.643 11.643 0 00-3.825 4.185c.12 1.2.36 2.37.72 3.51.36 1.14.87 2.235 1.53 3.285a7.384 7.384 0 002.655 2.52c1.14.63 2.43.945 3.87.945zm26.512-17.055c-1.29 1.38-2.94 2.07-4.95 2.07-2.01 0-3.66-.69-4.95-2.07s-1.935-3.12-1.935-5.22c0-2.13.645-3.885 1.935-5.265 1.29-1.41 2.94-2.115 4.95-2.115 2.01 0 3.66.705 4.95 2.115 1.29 1.38 1.935 3.135 1.935 5.265 0 2.1-.645 3.84-1.935 5.22zM143.305 140h-1.62l19.17-30.015h1.665L143.305 140zm21.015-1.53c-1.29 1.38-2.94 2.07-4.95 2.07-2.01 0-3.66-.69-4.95-2.07s-1.935-3.12-1.935-5.22c0-2.13.645-3.885 1.935-5.265 1.29-1.41 2.94-2.115 4.95-2.115 2.01 0 3.66.705 4.95 2.115 1.29 1.38 1.935 3.135 1.935 5.265 0 2.1-.645 3.84-1.935 5.22zm-19.845-15.48c1.59 0 2.88-.585 3.87-1.755 1.02-1.2 1.53-2.64 1.53-4.32 0-1.71-.51-3.165-1.53-4.365-.99-1.2-2.28-1.8-3.87-1.8-1.56 0-2.85.6-3.87 1.8-1.02 1.2-1.53 2.655-1.53 4.365 0 1.65.51 3.075 1.53 4.275 1.02 1.2 2.31 1.8 3.87 1.8zm10.98 14.58c1.02 1.17 2.325 1.755 3.915 1.755 1.59 0 2.88-.585 3.87-1.755 1.02-1.2 1.53-2.64 1.53-4.32 0-1.71-.51-3.165-1.53-4.365-.99-1.2-2.28-1.8-3.87-1.8-1.59 0-2.895.6-3.915 1.8-.99 1.2-1.485 2.655-1.485 4.365 0 1.68.495 3.12 1.485 4.32z" fill="#fff" fill-opacity=".8"/><defs><linearGradient id="paint0_linear" x1="30" y1="126" x2="222" y2="126" gradientUnits="userSpaceOnUse"><stop stop-color="#0CF"/><stop offset="1" stop-color="#00A2FF"/></linearGradient><filter id="filter0_d" x="0" y="0" width="237.494" height="252" filterUnits="userSpaceOnUse" color-interpolation-filters="sRGB"><feFlood flood-opacity="0" result="BackgroundImageFix"/><feColorMatrix in="SourceAlpha" values="0 0 0 0 0 0 0 0 0 0 0 0 0 0 0 0 0 0 127 0"/><feOffset/><feGaussianBlur stdDeviation="15"/><feColorMatrix values="0 0 0 0 0 0 0 0 0 0.639216 0 0 0 0 1 0 0 0 0.5 0"/><feBlend in2="BackgroundImageFix" result="effect1_dropShadow"/><feBlend in="SourceGraphic" in2="effect1_dropShadow" result="shape"/></filter></defs></svg>