<svg width="222" height="222" fill="none" xmlns="http://www.w3.org/2000/svg"><path d="M222 126c0 53.019-42.981 96-96 96-53.02 0-96-42.981-96-96 0-53.02 42.98-96 96-96 53.019 0 96 42.98 96 96zm-188.028 0c0 50.826 41.202 92.028 92.028 92.028 50.826 0 92.028-41.202 92.028-92.028 0-50.826-41.202-92.028-92.028-92.028-50.826 0-92.028 41.202-92.028 92.028z" fill="#fff" fill-opacity=".1"/><g filter="url(#filter0_d)"><path d="M37.282 162.675a96 96 0 0187.8-132.67l.038 3.971a92.028 92.028 0 00-84.168 127.181l-3.67 1.518z" fill="url(#paint0_linear)"/></g><path d="M101.744 140.54c-2.25 0-4.23-.48-5.94-1.44-1.68-.96-2.94-2.16-3.78-3.6l1.26-.72c1.83 2.94 4.65 4.41 8.46 4.41 2.49 0 4.47-.63 5.94-1.89 1.47-1.29 2.205-3.045 2.205-5.265 0-2.31-.825-4.035-2.475-5.175-1.65-1.14-3.72-1.71-6.21-1.71-1.38 0-2.22.015-2.52.045v-1.44c.3.03 1.14.045 2.52.045 2.31 0 4.26-.54 5.85-1.62 1.59-1.08 2.385-2.685 2.385-4.815 0-1.98-.75-3.555-2.25-4.725-1.47-1.17-3.285-1.755-5.445-1.755-1.74 0-3.254.33-4.544.99-1.26.66-2.475 1.68-3.645 3.06l-1.126-.9c2.37-3 5.475-4.5 9.315-4.5 2.49 0 4.635.705 6.435 2.115 1.8 1.38 2.7 3.285 2.7 5.715 0 2.16-.675 3.825-2.025 4.995-1.35 1.14-2.805 1.845-4.365 2.115.93.09 1.89.39 2.88.9.99.48 1.89 1.32 2.7 2.52.84 1.17 1.26 2.55 1.26 4.14 0 2.49-.855 4.53-2.565 6.12-1.68 1.59-4.02 2.385-7.02 2.385zm21.522-.54h-1.44v-27.945l-4.725 5.175-.99-1.035 5.805-6.21h1.35V140zm17.88-17.865c-1.29 1.38-2.94 2.07-4.95 2.07-2.01 0-3.66-.69-4.95-2.07s-1.935-3.12-1.935-5.22c0-2.13.645-3.885 1.935-5.265 1.29-1.41 2.94-2.115 4.95-2.115 2.01 0 3.66.705 4.95 2.115 1.29 1.38 1.935 3.135 1.935 5.265 0 2.1-.645 3.84-1.935 5.22zM135.026 140h-1.62l19.17-30.015h1.665L135.026 140zm21.015-1.53c-1.29 1.38-2.94 2.07-4.95 2.07-2.01 0-3.66-.69-4.95-2.07s-1.935-3.12-1.935-5.22c0-2.13.645-3.885 1.935-5.265 1.29-1.41 2.94-2.115 4.95-2.115 2.01 0 3.66.705 4.95 2.115 1.29 1.38 1.935 3.135 1.935 5.265 0 2.1-.645 3.84-1.935 5.22zm-19.845-15.48c1.59 0 2.88-.585 3.87-1.755 1.02-1.2 1.53-2.64 1.53-4.32 0-1.71-.51-3.165-1.53-4.365-.99-1.2-2.28-1.8-3.87-1.8-1.56 0-2.85.6-3.87 1.8-1.02 1.2-1.53 2.655-1.53 4.365 0 1.65.51 3.075 1.53 4.275 1.02 1.2 2.31 1.8 3.87 1.8zm10.98 14.58c1.02 1.17 2.325 1.755 3.915 1.755 1.59 0 2.88-.585 3.87-1.755 1.02-1.2 1.53-2.64 1.53-4.32 0-1.71-.51-3.165-1.53-4.365-.99-1.2-2.28-1.8-3.87-1.8-1.59 0-2.895.6-3.915 1.8-.99 1.2-1.485 2.655-1.485 4.365 0 1.68.495 3.12 1.485 4.32z" fill="#fff" fill-opacity=".8"/><defs><linearGradient id="paint0_linear" x1="30" y1="126" x2="222" y2="126" gradientUnits="userSpaceOnUse"><stop stop-color="#0CF"/><stop offset="1" stop-color="#00A2FF"/></linearGradient><filter id="filter0_d" x="0" y=".004" width="155.12" height="192.67" filterUnits="userSpaceOnUse" color-interpolation-filters="sRGB"><feFlood flood-opacity="0" result="BackgroundImageFix"/><feColorMatrix in="SourceAlpha" values="0 0 0 0 0 0 0 0 0 0 0 0 0 0 0 0 0 0 127 0"/><feOffset/><feGaussianBlur stdDeviation="15"/><feColorMatrix values="0 0 0 0 0 0 0 0 0 0.639216 0 0 0 0 1 0 0 0 0.5 0"/><feBlend in2="BackgroundImageFix" result="effect1_dropShadow"/><feBlend in="SourceGraphic" in2="effect1_dropShadow" result="shape"/></filter></defs></svg>