<svg width="17" height="16" fill="none" xmlns="http://www.w3.org/2000/svg"><path clip-rule="evenodd" d="M15.882 7.374c0-3.492-3.12-6.334-6.96-6.334s-6.96 2.842-6.96 6.334c0 1.882.912 3.655 2.507 4.856l.41.32v1.75l1.44-.74.348-.18.381.097a7.617 7.617 0 001.874.233c3.84 0 6.96-2.843 6.96-6.336zm-14.96 0C.922 3.302 4.504 0 8.922 0c4.417 0 8 3.304 8 7.376 0 4.072-3.583 7.374-8 7.374a8.64 8.64 0 01-2.13-.267L3.832 16v-2.934c-1.778-1.354-2.91-3.4-2.91-5.692zM8.085 5.22L3.992 9.61l3.734-2.032 2.016 2.204 4.11-4.485-3.689 2.016L8.085 5.22z"/></svg>