<svg width="17" height="16" fill="none" xmlns="http://www.w3.org/2000/svg"><path fill-rule="evenodd" clip-rule="evenodd" d="M12.023 1.306a3.592 3.592 0 013.592 3.592v6.204a3.592 3.592 0 01-3.592 3.592H5.82a3.592 3.592 0 01-3.591-3.592V4.898A3.592 3.592 0 015.82 1.306h6.204zm0-1.306H5.82A4.913 4.913 0 00.921 4.898v6.204A4.913 4.913 0 005.82 16h6.204a4.913 4.913 0 004.898-4.898V4.898A4.913 4.913 0 0012.023 0zm1.166 2.775a.935.935 0 100 1.87.935.935 0 000-1.87zm-2.62 2.848a2.887 2.887 0 10-3.205 4.802 2.887 2.887 0 003.206-4.802zm-3.93-1.08a4.193 4.193 0 114.67 6.963 4.193 4.193 0 01-4.67-6.964z" fill="#383838"/></svg>