<svg width="38" height="38" fill="none" xmlns="http://www.w3.org/2000/svg"><circle cx="19" cy="19" r="19" fill="#26AFFF"/><path d="M14.04 21.971a15.966 15.966 0 005.313 4.146c.777.367 1.816.802 2.973.877.072.003.14.006.212.006.777 0 1.401-.267 1.91-.817.003-.004.01-.01.012-.016.181-.218.387-.413.602-.622.147-.14.297-.286.44-.435.665-.69.665-1.566-.006-2.235l-1.875-1.867c-.318-.33-.699-.504-1.098-.504-.4 0-.783.174-1.11.5l-1.118 1.113a6.168 6.168 0 00-.309-.162 3.87 3.87 0 01-.343-.186c-1.017-.643-1.94-1.483-2.823-2.561-.447-.563-.746-1.035-.955-1.517.293-.264.568-.54.833-.811.093-.096.19-.193.287-.29.337-.335.518-.723.518-1.118 0-.395-.178-.783-.518-1.12l-.93-.925-.318-.324a17.064 17.064 0 00-.633-.624c-.322-.314-.7-.479-1.099-.479-.396 0-.777.165-1.11.482l-1.167 1.162a2.385 2.385 0 00-.715 1.53c-.059.742.078 1.532.434 2.486.546 1.476 1.37 2.847 2.593 4.311zm-2.265-6.732c.037-.414.196-.759.496-1.057l1.16-1.156c.181-.174.38-.264.574-.264.19 0 .384.09.562.27.209.193.405.395.618.61l.324.329.93.926c.193.192.293.388.293.581 0 .193-.1.389-.293.581l-.29.292c-.29.293-.562.57-.861.833l-.016.016c-.259.258-.218.503-.156.69l.01.025c.24.575.574 1.122 1.095 1.775.936 1.15 1.921 2.042 3.007 2.729.134.087.278.155.412.223.125.063.24.122.343.187l.034.018a.655.655 0 00.303.078c.25 0 .412-.158.465-.211l1.167-1.163c.18-.18.377-.276.57-.276.238 0 .431.146.553.276l1.881 1.872c.375.373.372.777-.009 1.171-.131.14-.268.274-.415.414-.218.211-.446.429-.652.674-.359.386-.786.566-1.338.566-.054 0-.11-.003-.163-.006-1.023-.066-1.975-.463-2.69-.802a15.166 15.166 0 01-5.056-3.948c-1.164-1.395-1.947-2.694-2.465-4.087-.322-.855-.443-1.542-.393-2.166z" fill="#fff"/></svg>