<svg width="21" height="13" fill="none" xmlns="http://www.w3.org/2000/svg"><path d="M20.98 12.759a.33.33 0 00.02-.107V.347a.326.326 0 00-.02-.107l-.004-.014a.342.342 0 00-.067-.106c-.002-.002-.002-.005-.005-.007L20.901.11a.366.366 0 00-.108-.075l-.009-.004a.376.376 0 00-.124-.029h-.013L20.635 0H.365L.354.001.342.002a.38.38 0 00-.126.03C.213.031.21.033.209.034a.36.36 0 00-.11.075C.1.112.098.112.097.113L.092.12a.344.344 0 00-.068.106L.02.24A.326.326 0 000 .347v12.306c0 .038.008.074.02.108l.004.014c.016.04.04.076.069.107l.003.006.006.004a.367.367 0 00.038.033c.006.004.012.01.018.013a.25.25 0 00.051.027l.013.007A.383.383 0 00.365 13h20.27a.38.38 0 00.143-.028l.02-.01a.388.388 0 00.044-.024l.02-.016a.33.33 0 00.036-.03l.006-.005.004-.007a.344.344 0 00.067-.106l.006-.015zM.732 1.135l6.15 5.341-6.15 5.384V1.135zm12.606 5.08c-.026.016-.053.029-.074.051-.008.008-.01.02-.017.028L10.5 8.678 1.307.695h18.386l-6.356 5.52zm-5.914.732l2.83 2.458a.375.375 0 00.493 0l2.796-2.428 6.15 5.328H1.301l6.121-5.358zm6.66-.44l6.186-5.372v10.731l-6.185-5.36z" fill="#CCC"/></svg>