<svg width="15" height="21" fill="none" xmlns="http://www.w3.org/2000/svg"><path fill-rule="evenodd" clip-rule="evenodd" d="M13.524 10.92l-4.096 6.42-1.878 2.942a.413.413 0 01-.348.188H7.2a.411.411 0 01-.348-.194l-1.791-2.92-3.949-6.443a.412.412 0 01-.03-.057A6.98 6.98 0 010 7.134C0 3.2 3.283 0 7.319 0s7.319 3.2 7.319 7.134a6.976 6.976 0 01-1.08 3.72.362.362 0 01-.034.066zm-11.706-.424A6.197 6.197 0 01.82 7.134C.82 3.641 3.735.8 7.32.8c3.583 0 6.498 2.842 6.498 6.335a6.2 6.2 0 01-.997 3.362.377.377 0 00-.034.066l-4.328 6.782a5.48 5.48 0 00-.121.19l-.036.057-1.093 1.713-5.355-8.736a.396.396 0 00-.036-.072zm5.49-5.955c1.468 0 2.662 1.163 2.662 2.594 0 1.43-1.194 2.593-2.662 2.593-1.467 0-2.66-1.163-2.66-2.593S5.84 4.54 7.307 4.54zm0 .798c-1.015 0-1.841.806-1.841 1.796S6.293 8.93 7.308 8.93c1.016 0 1.842-.806 1.842-1.795 0-.99-.826-1.795-1.842-1.795z" fill="#CCC"/></svg>