<svg width="198" height="60" fill="none" xmlns="http://www.w3.org/2000/svg"><path d="M17.512 4.5h15.36v25.26c0 2.12-.42 4.12-1.26 6-.8 1.84-1.9 3.46-3.3 4.86-1.4 1.36-3.04 2.44-4.92 3.24-1.88.76-3.86 1.14-5.94 1.14-2.12 0-4.12-.4-6-1.2-1.88-.8-3.52-1.88-4.92-3.24-1.4-1.4-2.52-3.04-3.36-4.92-.8-1.88-1.2-3.92-1.2-6.12h4.02c0 1.6.3 3.1.9 4.5.6 1.4 1.4 2.62 2.4 3.66 1.04 1 2.26 1.8 3.66 2.4 1.4.6 2.9.9 4.5.9 1.56 0 3.02-.28 4.38-.84 1.4-.6 2.62-1.4 3.66-2.4s1.86-2.18 2.46-3.54c.6-1.4.9-2.88.9-4.44V8.52h-11.34V4.5zm53.532 34.62c-1.84 1.84-4 3.28-6.48 4.32-2.44 1.04-5.06 1.56-7.86 1.56-2.8 0-5.44-.52-7.92-1.56-2.44-1.08-4.58-2.52-6.42-4.32-1.8-1.84-3.24-3.98-4.32-6.42-1.04-2.48-1.56-5.12-1.56-7.92s.52-5.42 1.56-7.86c1.08-2.48 2.52-4.64 4.32-6.48 1.84-1.84 3.98-3.28 6.42-4.32 2.48-1.08 5.12-1.62 7.92-1.62s5.42.54 7.86 1.62c2.48 1.04 4.64 2.48 6.48 4.32l-2.88 2.82c-1.48-1.44-3.22-2.58-5.22-3.42-1.96-.88-4.04-1.32-6.24-1.32-2.16 0-4.22.44-6.18 1.32-1.92.84-3.64 2-5.16 3.48-1.48 1.44-2.66 3.16-3.54 5.16-.88 1.96-1.32 4.06-1.32 6.3 0 2.16.42 4.22 1.26 6.18a17.85 17.85 0 003.42 5.16c1.48 1.48 3.2 2.66 5.16 3.54 1.96.88 4.08 1.32 6.36 1.32 2.16 0 4.24-.4 6.24-1.2 2-.84 3.74-2.02 5.22-3.54l2.88 2.88zm15.994-12.24v-9.66l-2.618.07v.77l1.19.28v8.54l-1.19.35V28h3.878v-.77l-1.26-.35zm4.053-2.38l4.83-.028s.07-.392.07-.742c0-2.1-.91-3.29-2.94-3.29s-3.43 1.68-3.43 3.92c0 2.31 1.12 3.78 3.36 3.78 1.68 0 2.982-1.162 2.982-1.162l-.49-.728s-.952.77-2.352.77c-1.204 0-2.03-.98-2.03-2.52zm3.416-1.05h-3.36c.084-1.05.714-1.918 1.834-1.918s1.526.868 1.526 1.918zm10.655-2.03v-.77l-2.45.056s-.49-.266-1.4-.266c-1.82 0-3.08.91-3.08 2.73 0 1.68 1.078 2.17 1.078 2.17s-.728 1.12-.728 1.582c0 .728.84.798.84.798s-1.47.49-1.47 1.75c0 1.54 1.4 2.03 3.36 2.03 2.45 0 3.64-.98 3.64-2.52 0-1.33-.98-2.03-2.8-2.03h-2.17l.07-1.316s.42.126 1.05.126c1.82 0 3.08-.84 3.08-2.73 0-.91-.378-1.414-.378-1.414l1.358-.196zm-3.92 0c1.05 0 1.54.63 1.54 1.68 0 1.19-.49 1.68-1.61 1.68-1.05 0-1.54-.7-1.54-1.68 0-1.12.49-1.68 1.61-1.68zm-.98 6.58h1.54c1.12 0 1.82.21 1.82 1.12 0 .91-.7 1.33-2.1 1.33-1.33 0-2.17-.21-2.17-1.19 0-.84.91-1.26.91-1.26zm6.999-7l.07 1.75h.91l.196-1.05s.574-.21 1.414-.21 1.33.42 1.33 1.26v1.12h-1.12c-1.96 0-3.22.56-3.22 2.17 0 1.33.77 2.1 2.1 2.1.98 0 1.82-.644 2.296-1.12l.294.98 2.17-.07v-.77l-1.12-.28v-4.27c0-1.61-.966-2.17-2.59-2.17-1.19 0-2.73.56-2.73.56zm2.94 3.78h.98v1.12s-.84 1.12-1.89 1.12c-.63 0-1.022-.42-1.022-1.05 0-.84.532-1.19 1.932-1.19zm7.664 2.1v-9.66l-2.618.07v.77l1.19.28v8.54l-1.19.35V28h3.878v-.77l-1.26-.35zm6.02.28V28h3.85v-.84l-1.316-.266.546-1.554h3.64l.532 1.554-1.302.266V28h4.06v-.84l-1.162-.266-3.108-8.694-1.4.07-3.192 8.624-1.148.266zm3.458-2.94l1.47-4.214 1.414 4.214h-2.884zm14.387 2.66v-9.66l-2.59.07v.77l1.19.28v2.324a4.054 4.054 0 00-1.33-.224c-2.52 0-3.71 1.68-3.71 4.06 0 2.17.91 3.64 2.94 3.64 1.064 0 1.792-.532 2.198-.938l.112.798 2.38-.07v-.77l-1.19-.28zm-1.4-5.04v4.13s-.63 1.05-1.82 1.05c-1.26 0-1.75-1.12-1.75-2.66s.476-2.8 2.1-2.8c.98 0 1.47.28 1.47.28zm6.863-.42v-.84l-3.15.07v.77l.7.21 2.296 6.37h1.54l2.38-6.44.77-.14v-.84l-3.136.07v.77l.966.21-1.68 5.11-1.666-5.18.98-.14zm6.77-3.15c0 .63.35.98.91.98.42 0 .91-.35.91-.98 0-.7-.35-.98-.91-.98-.49 0-.91.35-.91.98zm1.68 8.61v-6.3l-2.59.07v.77l1.19.28v5.18l-1.19.35V28h3.64v-.77l-1.05-.35zm3.864-1.12h-.98v2.072s.924.308 2.212.308c1.68 0 3.08-.784 3.08-2.394 0-2.394-3.906-1.82-3.906-3.318 0-.714.532-.938 1.246-.938.7 0 1.134.168 1.134.168l.224 1.092h.91l.042-1.89s-1.288-.42-2.394-.42c-1.442 0-2.562.728-2.562 2.184 0 2.548 3.906 1.848 3.906 3.36 0 .868-.742 1.106-1.582 1.106-.756 0-1.176-.126-1.176-.126l-.154-1.204zm9.768-5.32c-2.1 0-3.57 1.54-3.57 3.92 0 2.52 1.26 3.78 3.36 3.78 2.1 0 3.5-1.61 3.5-3.99 0-2.24-1.19-3.71-3.29-3.71zm-.07 1.12c1.4 0 1.89 1.12 1.89 2.66 0 1.82-.56 2.8-1.96 2.8s-1.96-1.05-1.96-2.73c0-1.82.63-2.73 2.03-2.73zm7.621.042l-.126-1.022-2.31.07v.77l1.19.28v5.18l-1.19.35V28h3.99v-.77l-1.4-.35v-4.158c.308-.406.98-1.092 2.03-1.092l.21 1.05h.91l.07-2.03s-.56-.21-1.26-.21c-.952 0-1.764.77-2.114 1.162zm7.641-.182v-.84l-3.29.07v.77l.84.21 2.506 6.398c-.812 1.778-1.232 2.212-2.464 2.212-.154 0-.294 0-.462-.014l-.126 1.064s.546.07.896.07c2.31 0 3.038-2.31 3.78-4.256l1.988-5.544.91-.14v-.84l-3.318.07v.77l.98.21-1.54 4.83-1.68-4.9.98-.14zM86.38 43.6l-.28-1.47h-1.12v2.45s1.414.56 2.884.56c1.96 0 3.654-.966 3.654-3.066 0-3.15-5.04-2.338-5.04-4.466 0-.7.602-1.358 1.862-1.358.77 0 1.484.252 1.484.252L90.3 38h.91l.07-2.38s-1.624-.56-2.954-.56c-1.75 0-3.318.826-3.318 2.786 0 3.346 5.054 2.45 5.054 4.606 0 .994-1.12 1.498-2.142 1.498-.91 0-1.54-.35-1.54-.35zm8.704-2.1l4.83-.028s.07-.392.07-.742c0-2.1-.91-3.29-2.94-3.29s-3.43 1.68-3.43 3.92c0 2.31 1.12 3.78 3.36 3.78 1.68 0 2.981-1.162 2.981-1.162l-.49-.728s-.952.77-2.352.77c-1.204 0-2.03-.98-2.03-2.52zm3.415-1.05h-3.36c.085-1.05.715-1.918 1.835-1.918s1.525.868 1.525 1.918zm5.811-1.848l-.126-1.022-2.31.07v.77l1.19.28v5.18l-1.19.35V45h3.99v-.77l-1.4-.35v-4.158c.308-.406.98-1.092 2.03-1.092l.21 1.05h.91l.07-2.03s-.56-.21-1.26-.21c-.952 0-1.764.77-2.114 1.162zm7.432-.182v-.84l-3.15.07v.77l.7.21 2.296 6.37h1.54l2.38-6.44.77-.14v-.84l-3.136.07v.77l.966.21-1.68 5.11-1.666-5.18.98-.14zm6.77-3.15c0 .63.35.98.91.98.42 0 .91-.35.91-.98 0-.7-.35-.98-.91-.98-.49 0-.91.35-.91.98zm1.68 8.61v-6.3l-2.59.07v.77l1.19.28v5.18l-1.19.35V45h3.64v-.77l-1.05-.35zm7.84-3.99h.91l.07-1.89s-1.12-.56-2.38-.56c-2.24 0-3.64 1.61-3.64 3.85 0 2.38 1.19 3.85 3.5 3.85 1.54 0 2.8-1.12 2.8-1.12l-.49-.84s-.84.84-2.17.84-2.17-.98-2.17-2.87c0-1.75.77-2.59 2.1-2.59.7 0 1.26.14 1.26.14l.21 1.19zm4.266 1.61l4.83-.028s.07-.392.07-.742c0-2.1-.91-3.29-2.94-3.29s-3.43 1.68-3.43 3.92c0 2.31 1.12 3.78 3.36 3.78 1.68 0 2.982-1.162 2.982-1.162l-.49-.728s-.952.77-2.352.77c-1.204 0-2.03-.98-2.03-2.52zm3.416-1.05h-3.36c.084-1.05.714-1.918 1.834-1.918s1.526.868 1.526 1.918zm4.439 2.31h-.98v2.072s.924.308 2.212.308c1.68 0 3.08-.784 3.08-2.394 0-2.394-3.906-1.82-3.906-3.318 0-.714.532-.938 1.246-.938.7 0 1.134.168 1.134.168l.224 1.092h.91l.042-1.89s-1.288-.42-2.394-.42c-1.442 0-2.562.728-2.562 2.184 0 2.548 3.906 1.848 3.906 3.36 0 .868-.742 1.106-1.582 1.106-.756 0-1.176-.126-1.176-.126l-.154-1.204z" fill="#fff"/></svg>