<svg xmlns="http://www.w3.org/2000/svg" width="269" height="495"><path d="M27 246.972v246.972l-13.75.308-13.75.309 14.25.22L28 495V247.5C28 111.375 27.775 0 27.5 0S27 111.137 27 246.972M213.2 96.2c-1.819 1.819-1.439 5.274.804 7.304 4.13 3.738 10.173-2.441 6.431-6.576-1.969-2.176-5.438-2.525-7.235-.728m34.367.726c-2.291 2.531-1.685 5.151 1.622 7.006 2.442 1.371 2.854 1.339 4.743-.37 2.299-2.081 2.705-5.525.868-7.362-1.796-1.796-5.265-1.448-7.233.726M213.2 127.2c-3.461 3.461 1.369 10.171 5.665 7.872 1.1-.588 2.296-2.003 2.657-3.143 1.317-4.147-5.2-7.851-8.322-4.729m34.371.371c-2.106 2.107-1.979 4.021.429 6.429 2.408 2.408 2.917 2.447 5.777.443 2.418-1.693 2.932-5.334 1.023-7.243-1.683-1.683-5.364-1.494-7.229.371M213.2 158.2c-.66.66-1.2 2.145-1.2 3.3 0 2.874 1.867 4.5 5.165 4.5 2.585 0 4.835-2.263 4.835-4.863 0-3.291-6.333-5.404-8.8-2.937m34.371.371c-1.896 1.897-1.99 3.527-.321 5.598 1.929 2.394 4.313 2.825 6.635 1.199 2.325-1.629 2.793-5.29.915-7.168-1.683-1.683-5.364-1.494-7.229.371M213.2 189.2c-1.64 1.64-1.51 5.298.24 6.75.791.657 2.674 1.049 4.183.872 3.41-.4 5.1-4.956 2.722-7.334-1.792-1.793-5.491-1.942-7.145-.288m33.732.926c-1.744 3.261.277 6.874 3.847 6.874 3.351 0 5.221-1.612 5.221-4.5 0-2.874-1.867-4.5-5.165-4.5-1.796 0-3.163.745-3.903 2.126m-33.879 30.31c-1.545 1.862-.612 6.412 1.479 7.215.81.31 2.623.276 4.029-.077 2.247-.564 2.518-1.09 2.247-4.358-.277-3.34-.62-3.746-3.393-4.017-1.869-.182-3.589.305-4.362 1.237m33.927.602c-.6 1.121-.811 2.92-.469 3.997.739 2.328 5.139 3.673 7.394 2.26 2.036-1.275 2.603-4.978 1.049-6.85-1.812-2.183-6.682-1.821-7.974.593m-34.197 30.54c-1.469 3.222-.077 5.814 3.318 6.181 3.388.366 5.149-1.09 5.149-4.259 0-4.956-6.421-6.414-8.467-1.922m34.788-1.007c-.864.865-1.571 2.183-1.571 2.929 0 2.082 2.886 4.5 5.371 4.5 2.8 0 4.629-1.778 4.629-4.5 0-4.278-5.253-6.104-8.429-2.929m-34.525 30.874c-1.554 1.872-.987 5.575 1.049 6.85 2.544 1.593 6.604.062 7.129-2.689.254-1.328.06-3.133-.431-4.011-1.113-1.99-6.139-2.087-7.747-.15m34.58.072c-3.024 3.024-1.065 7.483 3.287 7.483 3.881 0 5.699-2.352 4.491-5.81-1.128-3.225-5.324-4.128-7.778-1.673m-140.054 16.054c-1.889 1.889-2.042 4.821-.322 6.148.688.53 4.386 1.716 8.218 2.636 24.336 5.844 45.576 27.229 51.31 51.663 1.332 5.672 2.2 7.47 4.004 8.292 1.873.854 2.683.669 4.342-.99 1.995-1.995 2.003-2.189.369-8.93-2.256-9.301-9.283-23.58-15.185-30.855-10.098-12.447-24.538-22.258-38.808-26.367-11.116-3.201-12.2-3.325-13.928-1.597m-52.359 9.679c-.369 3.9.735 6.75 2.614 6.75C60.507 314 81 335.185 81 337.955c0 1.476-2.589 4.826-7.5 9.706-8.48 8.424-8.859 9.723-5.045 17.25 6.957 13.729 26.446 32.84 41.245 40.444 5.313 2.731 6.941 2.108 15.3-5.855 5.044-4.805 8.687-7.5 10.137-7.5 3.191 0 23.863 20.716 23.863 23.915 0 3.499-14.291 17.792-19.286 19.289-8.264 2.476-24.96-2.658-41.986-12.912-14.598-8.79-26.004-19.254-40.653-37.292l-2.03-2.5.107 6.78c.116 7.369.691 8.521 8.262 16.556 19.663 20.868 51.573 38.268 70.586 38.489 9.961.115 13.314-1.622 23.678-12.274 14.102-14.492 13.782-17.727-3.492-35.282-16.647-16.919-20.438-17.579-32.695-5.694l-7.129 6.912-5.86-3.528c-11.043-6.65-27.106-22.991-32.109-32.665l-1.578-3.053 5.979-6.121c6.491-6.643 7.889-8.792 8.215-12.62.619-7.29.282-7.87-11.759-20.215C66.191 308.447 61.527 305 57.245 305c-1.157 0-1.897.819-2.032 2.25m51.537 16.83c-2.024 1.179-2.332 5.246-.5 6.597.688.507 3.5 1.488 6.25 2.18 13.057 3.287 25.721 16.496 28.162 29.373.814 4.295 2.072 5.77 4.925 5.77 3.623 0 4.865-3.285 3.352-8.866-4.379-16.16-16.948-29.277-32.722-34.149-7.371-2.277-7.149-2.255-9.467-.905" fill-rule="evenodd"/></svg>