<svg width="146" height="31" fill="none" xmlns="http://www.w3.org/2000/svg"><path d="M12.15 0h12.007v19.335c0 1.622-.328 3.153-.985 4.592a11.94 11.94 0 01-2.58 3.72 12.49 12.49 0 01-3.846 2.48 12.5 12.5 0 01-4.644.873 12.06 12.06 0 01-4.69-.919 12.492 12.492 0 01-3.847-2.48 12.45 12.45 0 01-2.627-3.765c-.625-1.44-.938-3-.938-4.685h3.143c0 1.225.234 2.373.703 3.445a9.247 9.247 0 001.877 2.801 9.481 9.481 0 002.861 1.837 9 9 0 003.518.689 9.07 9.07 0 003.425-.643 9.482 9.482 0 002.86-1.837 8.447 8.447 0 001.924-2.71 8.384 8.384 0 00.704-3.398V3.077h-8.866V0zM54 26.5c-1.438 1.408-3.127 2.51-5.066 3.306-1.908.796-3.956 1.194-6.145 1.194-2.189 0-4.253-.398-6.192-1.194-1.907-.827-3.58-1.929-5.019-3.307a16.507 16.507 0 01-3.377-4.914c-.813-1.898-1.22-3.919-1.22-6.062 0-2.143.407-4.149 1.22-6.016.844-1.899 1.97-3.552 3.377-4.96a15.794 15.794 0 015.02-3.307C38.535.413 40.6 0 42.788 0c2.19 0 4.237.413 6.145 1.24 1.939.796 3.628 1.898 5.066 3.307l-2.252 2.158c-1.157-1.102-2.517-1.975-4.08-2.618a11.99 11.99 0 00-4.879-1.01c-1.689 0-3.3.337-4.831 1.01a13.514 13.514 0 00-4.035 2.664c-1.157 1.102-2.08 2.419-2.767 3.95-.688 1.5-1.032 3.107-1.032 4.822 0 1.653.328 3.23.985 4.73a13.644 13.644 0 002.674 3.95 13.441 13.441 0 004.034 2.71c1.532.673 3.19 1.01 4.972 1.01 1.689 0 3.315-.306 4.878-.919a12.268 12.268 0 004.081-2.71L54 26.5zm14.004-9.613l-.976-.275V9L65 9.055v.607l.922.22v6.73l-.922.276v.606h3.004v-.607zm5.907-2.173s.054-.309.054-.584c0-1.655-.705-2.593-2.277-2.593-1.573 0-2.657 1.324-2.657 3.09 0 1.82.867 2.978 2.603 2.978 1.301 0 2.31-.916 2.31-.916l-.38-.574s-.737.607-1.822.607c-.933 0-1.573-.772-1.573-1.986l3.742-.022zm-3.698-.805c.065-.827.553-1.511 1.42-1.511.868 0 1.183.684 1.183 1.511h-2.603zM81.07 12.31v-.607l-1.898.044s-.38-.21-1.085-.21c-1.41 0-2.386.717-2.386 2.151 0 1.324.835 1.71.835 1.71s-.564.883-.564 1.247c0 .573.651.629.651.629s-1.139.386-1.139 1.379c0 1.213 1.085 1.6 2.603 1.6 1.898 0 2.82-.773 2.82-1.986 0-1.049-.76-1.6-2.17-1.6h-1.68l.054-1.037s.325.1.813.1c1.41 0 2.386-.663 2.386-2.152 0-.717-.292-1.114-.292-1.114l1.052-.155zm-3.037 0c.813 0 1.193.496 1.193 1.323 0 .938-.38 1.324-1.247 1.324-.814 0-1.193-.552-1.193-1.324 0-.882.38-1.323 1.247-1.323zm.434 5.184c.867 0 1.41.166 1.41.883s-.543 1.048-1.627 1.048c-1.03 0-1.681-.166-1.681-.938 0-.662.705-.993.705-.993h1.193zm4.283-4.137h.705l.152-.827s.445-.165 1.096-.165c.65 0 1.03.33 1.03.992v.883h-.868c-1.518 0-2.494.441-2.494 1.71 0 1.048.596 1.655 1.627 1.655.759 0 1.41-.508 1.778-.883l.228.772 1.681-.055v-.607l-.868-.22v-3.365c0-1.268-.748-1.71-2.006-1.71-.922 0-2.115.441-2.115.441l.054 1.38zm2.983 1.6v.882s-.65.883-1.464.883c-.488 0-.792-.33-.792-.827 0-.662.412-.938 1.497-.938h.759zm6.1 1.93l-.976-.275V9l-2.028.055v.607l.921.22v6.73l-.921.276v.606h3.004v-.607zm4.577-.264l-.889.21v.661h2.983v-.662l-1.02-.21.423-1.224h2.82l.412 1.225-1.008.21v.661h3.145v-.662l-.9-.21-2.408-6.85-1.085.055-2.472 6.796zm4.024-2.107H98.2l1.139-3.32 1.095 3.32zm9.833 2.316l-.922-.22V9l-2.006.055v.607l.922.22v1.832a3.093 3.093 0 00-1.031-.177c-1.952 0-2.874 1.324-2.874 3.2 0 1.71.705 2.868 2.278 2.868.824 0 1.388-.42 1.703-.74l.086.63 1.844-.056v-.607zm-2.006-.937s-.488.827-1.41.827c-.976 0-1.356-.883-1.356-2.096s.369-2.206 1.627-2.206c.759 0 1.139.22 1.139.22v3.255zm4.557-3.475l.76-.11v-.662l-2.441.055v.607l.543.165 1.778 5.02h1.193l1.844-5.075.597-.11v-.662l-2.43.055v.607l.748.165-1.301 4.026-1.291-4.081zm6.004-2.593c0 .497.272.773.705.773.326 0 .705-.276.705-.773 0-.551-.271-.772-.705-.772-.379 0-.705.276-.705.772zm2.115 7.06l-.813-.275v-4.964l-2.007.055v.607l.922.22v4.082l-.922.276v.606h2.82v-.607zm2.18-1.157h-.759v1.632s.715.243 1.713.243c1.302 0 2.386-.618 2.386-1.887 0-1.886-3.026-1.434-3.026-2.614 0-.563.413-.74.966-.74.542 0 .878.133.878.133l.174.86h.705l.032-1.489s-.998-.33-1.854-.33c-1.118 0-1.985.573-1.985 1.72 0 2.008 3.026 1.456 3.026 2.648 0 .684-.575.871-1.226.871-.585 0-.911-.1-.911-.1l-.119-.948zm7.567-4.193c-1.626 0-2.765 1.214-2.765 3.09 0 1.985.976 2.978 2.603 2.978 1.627 0 2.711-1.269 2.711-3.144 0-1.765-.922-2.924-2.549-2.924zm-.054.883c1.085 0 1.464.882 1.464 2.096 0 1.434-.434 2.206-1.518 2.206-1.085 0-1.518-.827-1.518-2.151 0-1.434.488-2.151 1.572-2.151zm5.806-.772l-1.79.055v.607l.922.22v4.082l-.922.276v.606h3.091v-.607l-1.084-.275v-3.277c.238-.32.759-.86 1.572-.86l.163.827h.705l.054-1.6s-.434-.165-.976-.165c-.737 0-1.366.607-1.637.916l-.098-.805zm5.258.772l.759-.11v-.662l-2.548.055v.607l.651.165 1.941 5.041c-.477 1.07-.965 1.799-1.725 1.799h-.542l-.097.772s.423.055.694.055c1.789 0 2.353-1.82 2.928-3.354l1.54-4.368.705-.11v-.662l-2.57.055v.607l.759.165-1.193 3.806-1.302-3.861zM66.356 28.628h-.868v1.93s1.096.442 2.234.442c1.519 0 2.83-.761 2.83-2.416 0-2.482-3.904-1.842-3.904-3.519 0-.552.467-1.07 1.443-1.07.597 0 1.15.199 1.15.199l.368 1.18h.705l.055-1.875s-1.258-.442-2.289-.442c-1.356 0-2.57.651-2.57 2.196 0 2.636 3.915 1.93 3.915 3.629 0 .783-.868 1.18-1.66 1.18-.704 0-1.192-.276-1.192-.276l-.217-1.158zm10.701-.518s.054-.31.054-.585c0-1.655-.705-2.592-2.278-2.592-1.572 0-2.657 1.323-2.657 3.088 0 1.82.868 2.979 2.603 2.979 1.302 0 2.31-.916 2.31-.916l-.38-.573s-.737.607-1.821.607c-.933 0-1.573-.773-1.573-1.986l3.742-.022zm-3.698-.806c.065-.827.553-1.51 1.42-1.51.868 0 1.182.683 1.182 1.51H73.36zm7.006-2.261l-1.79.055v.607l.922.22v4.082l-.921.276v.607h3.09v-.607l-1.084-.276v-3.276c.239-.32.76-.86 1.573-.86l.162.827h.705l.054-1.6s-.433-.165-.976-.165c-.737 0-1.366.606-1.637.915l-.098-.805zm5.095.772l.76-.11v-.662l-2.44.055v.607l.542.165 1.779 5.02h1.193l1.844-5.075.596-.11v-.662l-2.43.055v.607l.749.165-1.302 4.027-1.29-4.082zm6.005-2.592c0 .496.271.772.705.772.325 0 .705-.276.705-.772 0-.552-.271-.772-.705-.772-.38 0-.705.275-.705.772zm2.115 7.06l-.814-.276v-4.964l-2.006.055v.607l.922.22v4.082l-.922.276v.607h2.82v-.607zm5.26-3.42h.704l.055-1.49s-.868-.44-1.844-.44c-1.735 0-2.82 1.268-2.82 3.033 0 1.876.922 3.034 2.712 3.034 1.192 0 2.169-.883 2.169-.883l-.38-.661s-.65.662-1.681.662c-1.03 0-1.681-.773-1.681-2.262 0-1.379.596-2.04 1.627-2.04.542 0 .976.11.976.11l.162.937zm7.047 1.247s.054-.31.054-.585c0-1.655-.705-2.592-2.278-2.592-1.572 0-2.657 1.323-2.657 3.088 0 1.82.868 2.979 2.603 2.979 1.301 0 2.31-.916 2.31-.916l-.38-.573s-.737.607-1.822.607c-.932 0-1.572-.773-1.572-1.986l3.742-.022zm-3.699-.806c.065-.827.553-1.51 1.421-1.51s1.182.683 1.182 1.51h-2.603zm6.042 1.821h-.76v1.632s.716.243 1.714.243c1.301 0 2.386-.618 2.386-1.886 0-1.887-3.026-1.434-3.026-2.615 0-.563.412-.739.965-.739.543 0 .879.132.879.132l.173.86h.705l.033-1.488s-.998-.331-1.855-.331c-1.117 0-1.984.573-1.984 1.72 0 2.008 3.025 1.457 3.025 2.648 0 .684-.574.872-1.225.872-.586 0-.911-.1-.911-.1l-.119-.948z" fill="#383838"/></svg>