<svg width="198" height="60" fill="none" xmlns="http://www.w3.org/2000/svg"><path d="M17.512 4.5h15.36v25.26c0 2.12-.42 4.12-1.26 6-.8 1.84-1.9 3.46-3.3 4.86-1.4 1.36-3.04 2.44-4.92 3.24-1.88.76-3.86 1.14-5.94 1.14-2.12 0-4.12-.4-6-1.2-1.88-.8-3.52-1.88-4.92-3.24-1.4-1.4-2.52-3.04-3.36-4.92-.8-1.88-1.2-3.92-1.2-6.12h4.02c0 1.6.3 3.1.9 4.5.6 1.4 1.4 2.62 2.4 3.66 1.04 1 2.26 1.8 3.66 2.4 1.4.6 2.9.9 4.5.9 1.56 0 3.02-.28 4.38-.84 1.4-.6 2.62-1.4 3.66-2.4s1.86-2.18 2.46-3.54c.6-1.4.9-2.88.9-4.44V8.52h-11.34V4.5zm53.532 34.62c-1.84 1.84-4 3.28-6.48 4.32-2.44 1.04-5.06 1.56-7.86 1.56-2.8 0-5.44-.52-7.92-1.56-2.44-1.08-4.58-2.52-6.42-4.32-1.8-1.84-3.24-3.98-4.32-6.42-1.04-2.48-1.56-5.12-1.56-7.92s.52-5.42 1.56-7.86c1.08-2.48 2.52-4.64 4.32-6.48 1.84-1.84 3.98-3.28 6.42-4.32 2.48-1.08 5.12-1.62 7.92-1.62s5.42.54 7.86 1.62c2.48 1.04 4.64 2.48 6.48 4.32l-2.88 2.82c-1.48-1.44-3.22-2.58-5.22-3.42-1.96-.88-4.04-1.32-6.24-1.32-2.16 0-4.22.44-6.18 1.32-1.92.84-3.64 2-5.16 3.48-1.48 1.44-2.66 3.16-3.54 5.16-.88 1.96-1.32 4.06-1.32 6.3 0 2.16.42 4.22 1.26 6.18a17.85 17.85 0 003.42 5.16c1.48 1.48 3.2 2.66 5.16 3.54 1.96.88 4.08 1.32 6.36 1.32 2.16 0 4.24-.4 6.24-1.2 2-.84 3.74-2.02 5.22-3.54l2.88 2.88zm16.61-12.722V27h-3.318v-.602l1.106-.238v-9.044l-1.106-.224v-.602l2.226-.098v9.968l1.092.238zm4.902.728c-.625 0-1.18-.14-1.666-.42-.476-.29-.85-.71-1.12-1.26-.27-.55-.406-1.227-.406-2.03 0-.803.14-1.498.42-2.086.28-.588.672-1.04 1.176-1.358.514-.327 1.12-.49 1.82-.49.653 0 1.19.14 1.61.42.43.27.747.649.952 1.134.215.485.322 1.04.322 1.666 0 .103-.005.21-.014.322-.01.103-.019.224-.028.364h-5.096c.019.877.224 1.577.616 2.1.392.513.952.77 1.68.77.346 0 .724-.065 1.134-.196.41-.14.835-.35 1.274-.63l.406.63a6.292 6.292 0 01-1.568.812 4.934 4.934 0 01-1.512.252zm.14-6.79c-.616 0-1.106.21-1.47.63-.355.41-.574.952-.658 1.624h3.934c.01-.401-.046-.77-.168-1.106a1.726 1.726 0 00-.588-.826c-.261-.215-.611-.322-1.05-.322zm8.048 10.01c-1.092 0-1.908-.159-2.45-.476-.54-.317-.812-.775-.812-1.372 0-.728.434-1.33 1.302-1.806-.373-.084-.56-.285-.56-.602 0-.084.014-.182.042-.294a7.27 7.27 0 01.21-.518c.103-.233.257-.574.462-1.022-.765-.439-1.148-1.148-1.148-2.128 0-.821.266-1.465.798-1.932.542-.476 1.284-.714 2.226-.714.56 0 1.055.089 1.484.266l2.044-.112.014.686-1.092.21c.327.383.49.877.49 1.484 0 .821-.275 1.47-.826 1.946-.55.476-1.278.714-2.184.714-.448 0-.863-.06-1.246-.182l-.294 1.484h2.478c.906 0 1.587.177 2.044.532.467.345.7.845.7 1.498 0 .756-.312 1.335-.938 1.736-.616.401-1.53.602-2.744.602zm-.014-6.454c.607 0 1.074-.159 1.4-.476.336-.327.504-.784.504-1.372 0-.579-.158-1.017-.476-1.316-.317-.308-.77-.462-1.358-.462-.597 0-1.059.159-1.386.476-.326.317-.49.77-.49 1.358 0 .57.154 1.013.462 1.33.318.308.766.462 1.344.462zm.112 5.6c1.671 0 2.506-.467 2.506-1.4 0-.83-.616-1.246-1.848-1.246h-2.016c-.672.457-1.008.938-1.008 1.442 0 .803.79 1.204 2.366 1.204zm9.995-2.422l-.154-1.218a4.3 4.3 0 01-1.302.952c-.458.215-.901.322-1.33.322-.542 0-.999-.173-1.372-.518-.374-.355-.56-.882-.56-1.582 0-.532.112-.947.336-1.246.233-.308.555-.523.966-.644.41-.121.891-.182 1.442-.182h1.708v-1.19c0-.504-.136-.868-.406-1.092-.271-.224-.644-.336-1.12-.336-.467 0-.985.093-1.554.28l-.112 1.134h-.756l-.112-1.736a10.824 10.824 0 011.498-.392c.466-.093.9-.14 1.302-.14.737 0 1.316.168 1.736.504.429.327.644.854.644 1.582v4.592l1.106.21v.616l-1.96.084zm-3.584-2.128c0 .457.107.793.322 1.008.224.215.504.322.84.322.317 0 .667-.093 1.05-.28a4.665 4.665 0 001.106-.77v-1.526h-1.54c-.663 0-1.125.103-1.386.308-.262.196-.392.509-.392.938zm10.162 1.456V27h-3.318v-.602l1.106-.238v-9.044l-1.106-.224v-.602l2.226-.098v9.968l1.092.238zm8.041 0V27h-3.444v-.602l1.078-.238 3.332-8.918 1.162-.042 3.15 8.96 1.078.238V27h-3.64v-.602l1.288-.252-.63-1.904h-3.99l-.7 1.918 1.316.238zm-.35-2.996h3.472l-1.652-5.11-1.82 5.11zm10.632 3.724c-.522 0-.994-.14-1.414-.42-.41-.29-.737-.71-.98-1.26-.242-.56-.364-1.237-.364-2.03 0-1.297.327-2.277.98-2.94.663-.663 1.578-.994 2.744-.994.206 0 .42.014.644.042.234.028.472.07.714.126v-2.506l-1.162-.252v-.602l2.282-.098v9.968l1.092.21v.616l-1.96.084-.14-1.05c-.793.737-1.605 1.106-2.436 1.106zm.392-.854c.299 0 .612-.075.938-.224.336-.15.668-.373.994-.672v-4.844a4.95 4.95 0 00-1.4-.224c-.821 0-1.446.266-1.876.798-.429.532-.644 1.27-.644 2.212 0 .924.187 1.647.56 2.17.383.523.859.784 1.428.784zm9.439-6.622l2.926-.098v.616l-.826.238-2.366 6.622h-1.316l-2.184-6.608-.812-.168v-.602l3.08-.098v.616l-1.12.21 1.778 5.768 1.932-5.754-1.092-.14v-.602zm7.315 6.748V27h-3.304v-.602l1.092-.238v-5.684l-1.092-.224v-.602l2.212-.084v6.594l1.092.238zm-1.736-8.344a.748.748 0 01-.532-.196c-.14-.14-.21-.336-.21-.588 0-.252.07-.443.21-.574a.768.768 0 01.546-.21c.224 0 .406.07.546.21.14.13.21.322.21.574 0 .252-.075.448-.224.588a.768.768 0 01-.546.196zm4.716 3.346c0 .299.098.532.294.7.196.168.448.308.756.42.308.103.635.205.98.308.345.103.672.229.98.378.308.15.56.355.756.616.196.261.294.607.294 1.036 0 .495-.135.91-.406 1.246-.271.336-.639.593-1.106.77a4.442 4.442 0 01-1.54.252c-.355 0-.714-.028-1.078-.084a10.73 10.73 0 01-1.106-.238l.098-1.876h.714l.126 1.246c.205.047.42.089.644.126.233.028.448.042.644.042.327 0 .635-.047.924-.14.289-.103.523-.247.7-.434.177-.196.266-.439.266-.728 0-.308-.098-.55-.294-.728a2.111 2.111 0 00-.742-.434 12.157 12.157 0 00-.98-.308 6.485 6.485 0 01-.98-.378 2.068 2.068 0 01-.742-.616c-.196-.261-.294-.607-.294-1.036 0-.476.121-.863.364-1.162.252-.308.579-.532.98-.672.411-.15.849-.224 1.316-.224.317 0 .667.033 1.05.098s.775.163 1.176.294l-.07 1.582h-.714l-.182-1.008a4.994 4.994 0 00-1.232-.168c-.457 0-.84.098-1.148.294-.299.187-.448.462-.448.826zm9.556-1.918c1.017 0 1.82.322 2.408.966.588.644.882 1.554.882 2.73 0 .803-.14 1.498-.42 2.086a3.167 3.167 0 01-1.218 1.372c-.523.327-1.153.49-1.89.49-1.008 0-1.797-.313-2.366-.938-.57-.635-.854-1.545-.854-2.73 0-.812.135-1.517.406-2.114.28-.597.676-1.055 1.19-1.372.522-.327 1.143-.49 1.862-.49zm-.056.826c-.719 0-1.27.27-1.652.812-.383.541-.574 1.302-.574 2.282 0 .961.182 1.685.546 2.17.364.485.886.728 1.568.728.746 0 1.311-.27 1.694-.812.392-.541.588-1.293.588-2.254 0-.952-.192-1.675-.574-2.17-.374-.504-.906-.756-1.596-.756zM170.588 27v-.602l1.092-.238v-5.67l-1.092-.238v-.602l1.96-.098.14 1.19a5.01 5.01 0 011.148-.924 2.499 2.499 0 011.26-.336c.299 0 .612.047.938.14l-.084 2.044h-.7l-.14-1.246a1.868 1.868 0 00-.336-.028c-.354 0-.7.103-1.036.308a4.252 4.252 0 00-.938.784v4.676l1.358.238V27h-3.57zm6.749 3.276l.098-.826c.112.019.215.033.308.042.103.01.196.014.28.014.439 0 .794-.098 1.064-.294.28-.187.514-.471.7-.854.196-.373.388-.84.574-1.4l-2.52-6.566-.798-.14v-.602l3.066-.098v.616l-1.134.196 1.904 5.432 1.848-5.404-1.106-.14v-.602l2.968-.098v.616l-.812.182-2.436 6.678a14.438 14.438 0 01-.714 1.68c-.252.504-.574.9-.966 1.19-.382.299-.896.448-1.54.448-.224 0-.485-.023-.784-.07zm-91.111 6.332c0 .355.093.644.28.868.187.224.434.41.742.56.317.14.663.266 1.036.378.373.112.747.238 1.12.378.373.13.714.299 1.022.504.308.196.555.457.742.784.196.317.294.719.294 1.204 0 .653-.168 1.19-.504 1.61-.327.42-.765.733-1.316.938a5.351 5.351 0 01-1.806.294c-.467 0-.943-.047-1.428-.14a7.91 7.91 0 01-1.428-.448l.084-2.296h.686l.21 1.596a4.85 4.85 0 001.946.406c.439 0 .84-.065 1.204-.196a1.98 1.98 0 00.882-.602c.224-.27.336-.607.336-1.008 0-.373-.098-.672-.294-.896a1.978 1.978 0 00-.742-.56 6.865 6.865 0 00-1.022-.392 25.998 25.998 0 01-1.12-.364 4.93 4.93 0 01-1.022-.49 2.435 2.435 0 01-.756-.756c-.187-.317-.28-.719-.28-1.204 0-.597.145-1.092.434-1.484.299-.401.7-.7 1.204-.896.504-.196 1.073-.294 1.708-.294.915 0 1.839.191 2.772.574l-.112 2.198h-.7l-.196-1.568a4.852 4.852 0 00-1.736-.322c-.392 0-.76.056-1.106.168a1.765 1.765 0 00-.826.518c-.205.243-.308.555-.308.938zm10.555 7.518c-.626 0-1.18-.14-1.666-.42-.476-.29-.85-.71-1.12-1.26-.27-.55-.406-1.227-.406-2.03 0-.803.14-1.498.42-2.086.28-.588.672-1.04 1.176-1.358.513-.327 1.12-.49 1.82-.49.653 0 1.19.14 1.61.42.43.27.747.649.952 1.134.215.485.322 1.04.322 1.666 0 .103-.005.21-.014.322-.01.103-.019.224-.028.364H94.75c.018.877.224 1.577.616 2.1.392.513.952.77 1.68.77.345 0 .723-.065 1.134-.196.41-.14.835-.35 1.274-.63l.406.63a6.292 6.292 0 01-1.568.812 4.934 4.934 0 01-1.512.252zm.14-6.79c-.616 0-1.106.21-1.47.63-.355.41-.574.952-.658 1.624h3.934c.01-.401-.047-.77-.168-1.106a1.726 1.726 0 00-.588-.826c-.261-.215-.612-.322-1.05-.322zM101.805 44v-.602l1.092-.238v-5.67l-1.092-.238v-.602l1.96-.098.14 1.19c.383-.401.765-.71 1.148-.924a2.499 2.499 0 011.26-.336c.299 0 .611.047.938.14l-.084 2.044h-.7l-.14-1.246a1.962 1.962 0 00-1.372.28 4.23 4.23 0 00-.938.784v4.676l1.358.238V44h-3.57zm10.965-7.35l2.926-.098v.616l-.826.238-2.366 6.622h-1.316l-2.184-6.608-.812-.168v-.602l3.08-.098v.616l-1.12.21 1.778 5.768 1.932-5.754-1.092-.14v-.602zm7.315 6.748V44h-3.304v-.602l1.092-.238v-5.684l-1.092-.224v-.602l2.212-.084v6.594l1.092.238zm-1.736-8.344a.75.75 0 01-.532-.196c-.14-.14-.21-.336-.21-.588 0-.252.07-.443.21-.574.15-.14.332-.21.546-.21.224 0 .406.07.546.21.14.13.21.322.21.574 0 .252-.074.448-.224.588a.768.768 0 01-.546.196zm6.578 9.072a3.111 3.111 0 01-1.624-.434c-.476-.299-.854-.728-1.134-1.288-.271-.56-.406-1.232-.406-2.016 0-.905.163-1.643.49-2.212.327-.579.756-1.003 1.288-1.274.541-.28 1.12-.42 1.736-.42.373 0 .77.051 1.19.154a4.4 4.4 0 011.12.42l-.056 1.75h-.756l-.182-1.246a3.218 3.218 0 00-.686-.182 3.455 3.455 0 00-.644-.07c-.728 0-1.302.27-1.722.812-.411.541-.616 1.274-.616 2.198 0 .952.21 1.68.63 2.184.429.504.971.756 1.624.756.327 0 .677-.065 1.05-.196a4.91 4.91 0 001.176-.644l.392.616a5.5 5.5 0 01-1.456.826 4.11 4.11 0 01-1.414.266zm7.688 0c-.626 0-1.181-.14-1.666-.42-.476-.29-.85-.71-1.12-1.26-.271-.55-.406-1.227-.406-2.03 0-.803.14-1.498.42-2.086.28-.588.672-1.04 1.176-1.358.513-.327 1.12-.49 1.82-.49.653 0 1.19.14 1.61.42.429.27.746.649.952 1.134.214.485.322 1.04.322 1.666 0 .103-.005.21-.014.322-.01.103-.019.224-.028.364h-5.096c.018.877.224 1.577.616 2.1.392.513.952.77 1.68.77.345 0 .723-.065 1.134-.196.41-.14.835-.35 1.274-.63l.406.63a6.309 6.309 0 01-1.568.812 4.936 4.936 0 01-1.512.252zm.14-6.79c-.616 0-1.106.21-1.47.63-.355.41-.574.952-.658 1.624h3.934a3.039 3.039 0 00-.168-1.106 1.736 1.736 0 00-.588-.826c-.262-.215-.612-.322-1.05-.322zm6.298 1.064c0 .299.098.532.294.7.196.168.448.308.756.42.308.103.635.205.98.308.345.103.672.229.98.378.308.15.56.355.756.616.196.261.294.607.294 1.036 0 .495-.135.91-.406 1.246-.271.336-.639.593-1.106.77a4.442 4.442 0 01-1.54.252c-.355 0-.714-.028-1.078-.084a10.73 10.73 0 01-1.106-.238l.098-1.876h.714l.126 1.246c.205.047.42.089.644.126.233.028.448.042.644.042.327 0 .635-.047.924-.14.289-.103.523-.247.7-.434.177-.196.266-.439.266-.728 0-.308-.098-.55-.294-.728a2.111 2.111 0 00-.742-.434 12.157 12.157 0 00-.98-.308 6.485 6.485 0 01-.98-.378 2.068 2.068 0 01-.742-.616c-.196-.261-.294-.607-.294-1.036 0-.476.121-.863.364-1.162.252-.308.579-.532.98-.672.411-.15.849-.224 1.316-.224.317 0 .667.033 1.05.098s.775.163 1.176.294l-.07 1.582h-.714l-.182-1.008a4.994 4.994 0 00-1.232-.168c-.457 0-.84.098-1.148.294-.299.187-.448.462-.448.826z" fill="#383838"/></svg>