<svg width="38" height="38" fill="none" xmlns="http://www.w3.org/2000/svg"><circle cx="19" cy="19" r="19" fill="#26AFFF"/><path fill-rule="evenodd" clip-rule="evenodd" d="M23.91 20.001l-3.002 4.705-1.376 2.156a.303.303 0 01-.255.138h-.002a.302.302 0 01-.255-.142l-1.312-2.14-2.894-4.721a.298.298 0 01-.021-.042A5.115 5.115 0 0114 17.228C14 14.345 16.406 12 19.363 12c2.957 0 5.363 2.345 5.363 5.228 0 .96-.274 1.902-.792 2.726a.263.263 0 01-.024.047zm-8.578-.31a4.541 4.541 0 01-.731-2.463c0-2.56 2.136-4.643 4.762-4.643 2.626 0 4.762 2.083 4.762 4.643a4.54 4.54 0 01-.73 2.463.278.278 0 00-.025.049l-3.171 4.97c-.04.058-.053.08-.09.138l-.026.042-.8 1.255-3.924-6.401a.294.294 0 00-.027-.053zm4.024-4.364c1.075 0 1.95.853 1.95 1.9 0 1.049-.875 1.902-1.95 1.902s-1.95-.853-1.95-1.901.875-1.9 1.95-1.9zm0 .586c-.744 0-1.35.59-1.35 1.315s.606 1.315 1.35 1.315c.745 0 1.35-.59 1.35-1.315s-.606-1.315-1.35-1.315z" fill="#fff"/></svg>