<svg width="38" height="38" fill="none" xmlns="http://www.w3.org/2000/svg"><circle cx="19" cy="19" r="19" fill="#26AFFF"/><path d="M26.986 23.113a.237.237 0 00.014-.076v-8.789a.234.234 0 00-.014-.076l-.003-.01a.246.246 0 00-.048-.077l-.003-.004-.003-.002a.262.262 0 00-.077-.054l-.006-.003a.267.267 0 00-.09-.02L26.749 14H12.253l-.009.002a.27.27 0 00-.09.02l-.005.003a.257.257 0 00-.078.054s-.002 0-.003.002l-.003.004a.247.247 0 00-.048.077l-.003.01a.235.235 0 00-.014.076v8.79c0 .027.006.053.014.077l.003.01a.245.245 0 00.05.076c0 .002 0 .003.002.005l.004.003a.257.257 0 00.027.023l.013.01a.256.256 0 00.037.02c.003 0 .005.003.008.004.032.012.067.02.103.02h14.478a.27.27 0 00.102-.02l.014-.008a.257.257 0 00.032-.017l.015-.011a.26.26 0 00.025-.021l.004-.004.004-.005a.247.247 0 00.047-.076l.004-.01zm-14.464-8.302l4.393 3.815-4.393 3.846V14.81zm9.004 3.628c-.018.011-.037.02-.052.037-.006.006-.008.013-.013.02l-1.96 1.703-6.567-5.703h13.132l-4.54 3.943zm-4.224.523l2.022 1.756a.268.268 0 00.352 0l1.997-1.734 4.392 3.805H12.93l4.372-3.827zm4.758-.314l4.418-3.837v7.665l-4.418-3.828z" fill="#fff"/></svg>