<svg width="21" height="21" fill="none" xmlns="http://www.w3.org/2000/svg"><path d="M4.256 13.96a22.352 22.352 0 007.438 5.804c1.088.514 2.542 1.123 4.163 1.227.1.005.196.009.297.009 1.087 0 1.961-.374 2.673-1.144.004-.005.013-.014.017-.022.254-.305.542-.579.843-.87.206-.196.415-.4.616-.61.93-.966.93-2.193-.008-3.128l-2.626-2.616c-.445-.46-.978-.704-1.537-.704-.56 0-1.096.243-1.555.7l-1.564 1.558a7.51 7.51 0 00-.432-.226 5.407 5.407 0 01-.48-.261c-1.425-.901-2.718-2.076-3.954-3.586-.624-.788-1.044-1.45-1.336-2.124a26.8 26.8 0 001.166-1.135c.131-.135.266-.27.402-.405.472-.47.725-1.014.725-1.566 0-.553-.249-1.097-.725-1.567L7.077 1.997c-.153-.152-.297-.3-.445-.452-.289-.296-.59-.6-.887-.875C5.295.23 4.767 0 4.208 0 3.653 0 3.12.23 2.653.674L1.019 2.302a3.338 3.338 0 00-1 2.14c-.083 1.04.109 2.146.607 3.482.764 2.067 1.917 3.986 3.63 6.035zM1.084 4.533a2.298 2.298 0 01.695-1.48l1.625-1.618c.253-.244.533-.37.804-.37.266 0 .537.126.786.379.292.27.568.552.865.853.148.152.301.304.454.46l1.301 1.298c.271.27.411.543.411.813 0 .27-.14.544-.41.814-.136.135-.271.274-.407.409-.406.409-.786.796-1.205 1.166l-.022.022c-.363.361-.306.705-.219.966.005.013.01.022.014.035.336.805.803 1.57 1.533 2.484 1.31 1.61 2.69 2.86 4.21 3.821.188.122.39.218.577.313.175.087.336.17.48.261l.048.027a.915.915 0 00.424.108c.35 0 .577-.222.651-.296l1.634-1.627c.253-.252.528-.387.799-.387.332 0 .603.204.773.387l2.634 2.62c.524.522.52 1.087-.013 1.64a14.5 14.5 0 01-.581.579c-.306.296-.625.6-.913.944-.502.54-1.1.792-1.874.792-.074 0-.153-.004-.227-.009-1.433-.091-2.765-.648-3.765-1.122a21.235 21.235 0 01-7.08-5.527c-1.63-1.954-2.726-3.772-3.451-5.722-.45-1.197-.62-2.158-.55-3.033z" fill="#CCC"/></svg>